FILE "CHASM.BIN" BINARY
TRACK 01 MODE2/2352
INDEX 01 00:00:00
TRACK 02 AUDIO
PREGAP 00:02:00
INDEX 01 10:32:37
TRACK 03 AUDIO
INDEX 01 15:40:37
TRACK 04 AUDIO
INDEX 01 19:46:01
TRACK 05 AUDIO
INDEX 01 24:07:11
TRACK 06 AUDIO
INDEX 01 28:14:07
TRACK 07 AUDIO
INDEX 01 32:31:14
TRACK 08 AUDIO
INDEX 01 36:33:39
TRACK 09 AUDIO
INDEX 01 40:41:09
TRACK 10 AUDIO
INDEX 01 44:53:16
